<svg xmlns="http://www.w3.org/2000/svg" width="960" height="480" viewBox="0 0 960 480" role="img" aria-labelledby="t"><title id="t">From city cells to an indexed framebuffer</title><rect width="960" height="480" fill="#101b27"/><g stroke="#7b999f" fill="none" stroke-width="2"><path d="M215 119h85m220 0h80m110 45v80M420 306h180M230 310h70M710 339v55H420"/><path d="m292 114 8 5-8 5m292-10 8 5-8 5m113 117-5 8-5-8m-113 57 8 5-8 5m-300-1 8 5-8 5"/></g><g fill="#1c2d3d" stroke="#476575"><rect x="40" y="73" width="175" height="92" rx="3"/><rect x="300" y="73" width="220" height="92" rx="3"/><rect x="600" y="73" width="220" height="92" rx="3"/><rect x="40" y="261" width="190" height="98" rx="3"/><rect x="300" y="261" width="220" height="98" rx="3"/><rect x="600" y="244" width="220" height="95" rx="3"/><rect x="180" y="393" width="240" height="51" rx="3"/></g><g fill="#e9eee9" font-family="system-ui,sans-serif" text-anchor="middle" font-size="18"><text x="127" y="110">128 × 128</text><text x="127" y="139">map cells</text><text x="410" y="110">Model definitions</text><text x="410" y="139">&amp; placement</text><text x="710" y="110">Geometry</text><text x="710" y="139">interpreter</text><text x="135" y="299">Runtime state</text><text x="135" y="328" font-size="14" fill="#aac0c8">Damage · gates · light</text><text x="410" y="299">Alternate forms</text><text x="410" y="328" font-size="14" fill="#aac0c8">Select linked definitions</text><text x="710" y="283">Software rasterizer</text><text x="710" y="314" font-size="14" fill="#ebca80">Palette + vertex shades</text><text x="300" y="425">Indexed framebuffer</text></g><path d="M410 261v-96" stroke="#7b999f" fill="none" stroke-width="2"/><text x="40" y="38" font-family="system-ui,sans-serif" font-size="12" fill="#a2b8c5" letter-spacing="2">A SIMPLIFIED RENDERING PATH</text></svg>
